<svg role="img" viewBox="0 0 24 24" xmlns="http://www.w3.org/2000/svg" fill="#E34F26"><title>HTML5</title><polygon points="12,19.351 6.578,17.908 6.248,13.737 9.852,13.737 10.04,15.847 12,16.657 13.955,15.853 14.281,12.427 5.412,12.42 4.714,4.41 19.288,4.413 19.058,7.035 9.023,7.032 9.255,9.75 18.131,9.75 17.387,17.907" fill="#FFFFFF" /><path d="M1.5 0h21l-1.91 21.563L11.977 24l-8.564-2.438L1.5 0zm7.031 9.75l-.232-2.718 10.059.003.23-2.622L5.412 4.41l.698 8.01h9.126l-.326 3.426-2.91.804-2.955-.81-.188-2.11H6.248l.33 4.171L12 19.351l5.379-1.443.744-8.157H8.531z"/></svg>